<?xml version="1.0" encoding="utf-8"?>
<!-- Generator: Adobe Illustrator 19.2.1, SVG Export Plug-In . SVG Version: 6.00 Build 0)  -->
<svg version="1.1" id="Layer_1" xmlns="http://www.w3.org/2000/svg" xmlns:xlink="http://www.w3.org/1999/xlink" x="0px" y="0px"
	 viewBox="0 0 432 432" style="enable-background:new 0 0 432 432;" xml:space="preserve">
<style type="text/css">
	.st0{clip-path:url(#SVGID_2_);fill:#D60057;}
	.st1{clip-path:url(#SVGID_2_);}
	.st2{fill:#FFFFFF;}
</style>
<g>
	<defs>
		<path id="SVGID_1_" d="M218.6,353.7c52.3-27.5,132.1-104.9,145.7-149.5C386.7,131,329,98.2,252.5,74.8
			c-76.5-23.3-142.7-28.4-165,44.9c-13.6,44.6,9.4,153.3,37.4,205.4C142.7,358.3,185.2,371.3,218.6,353.7z"/>
	</defs>
	<clipPath id="SVGID_2_">
		<use xlink:href="#SVGID_1_"  style="overflow:visible;"/>
	</clipPath>
	<path class="st0" d="M218.6,353.7c52.3-27.5,132.1-104.9,145.7-149.5C386.7,131,329,98.2,252.5,74.8
		c-76.5-23.3-142.7-28.4-165,44.9c-13.6,44.6,9.4,153.3,37.4,205.4C142.7,358.3,185.2,371.3,218.6,353.7z"/>
	<g class="st1">
		<path class="st2" d="M373,177.2c-5.9,7.7-50,50-50,50s24.2-34.1,30.7-51.7c6.5-17.6,4.9-22.4-5-22.1c-10,0.4-27.5,16-27.5,16
			c-1-3.7-5-7.3-10.2-7.1c-5.2,0.3-16.9,8.1-16.9,8.1c0.8-3.8-2.3-7.9-7-7.8c-4.6,0.1-5.5,2.4-8.4,6.1c-1.6,2.1-9.4,12.2-16.1,21
			c-14.2,13.4-36.1,34.8-36.1,34.8c12.5-22.9,37.2-51.5,37.2-51.5c1.9-3,1-5.4-0.4-7c-1.4-1.6-3.3-2.6-5.4-2.9l-2.3-0.4
			c-8.5-1.3-11.9,3.6-11.9,3.6c-1.4-1.3-4-3.3-7.6-4.3c-15.2-4-35.7,14-45.8,34.1c-15.3,13.3-32.1,26.3-32.1,26.3
			s14.6-22.7,20.7-30.6c6.1-7.9,10.3-18.3,10.3-18.3c-1.5-9.7-10.4-10.3-10.4-10.3l-59.5,81.8c0,0-10.2,14.9-19.6,19.3
			c0,0-3.3,19.5,6.8,25.2c10,5.7,29.7-34.6,29.7-34.6s32.8-25.6,46.2-36.8c-0.3,2.6-0.2,5,0.7,7.5c0.5,1.4,2,5.4,5.5,7.2
			c6.4,3.3,17.5-1.5,26.7-12.9c0,0-8,10.2-8.4,18.3c-0.5,8,9.3,7.1,19-0.4c4.1-3.1,12-9.8,19.9-16.4c0.1,3.9,1.6,6.9,3.4,9
			c3,3.6,8.6,3.5,11.6-0.1c6.7-8.2,19.5-23.8,25.1-31.5c7.8-10.6,18-13.5,18-13.5s-19,32-13.3,35.8c5.7,3.8,20.5-13.1,20.5-13.1
			l27.1-31.6l-11.8,18.9c0,0-25.6,40.3-19,47.1c6.6,6.8,22.2-7.6,22.2-7.6s37.1-30.9,44.6-39.6C381.7,186.5,373,177.2,373,177.2z
			 M218.7,204.2c-5.6,4.3-10.2,6.6-13.4,7.8c-2.3,0.9-4.6-1.4-3.7-3.6c8.3-20.6,23.5-29.6,30.1-30.2c3.5-0.3,4.4,1.4,4.5,3.3
			C231.7,187,225.2,195.2,218.7,204.2z"/>
		<path class="st2" d="M198.3,156c-7.5,3-7.1-9.2-4.6-17.1c2.5-7.9,6-13.8,13.7-11.5c0,0,0.1,0,0.1,0c6.8,2.1,9.7,10.1,5.8,16
			C210.3,147.9,205.5,153.1,198.3,156z"/>
	</g>
</g>
</svg>
